<?xml version="1.0" encoding="utf-8"?>
<!-- Generator: Adobe Illustrator 23.1.1, SVG Export Plug-In . SVG Version: 6.00 Build 0)  -->
<svg version="1.1" id="Capa_1" xmlns="http://www.w3.org/2000/svg" xmlns:xlink="http://www.w3.org/1999/xlink" x="0px" y="0px"
	 viewBox="0 0 543 356" style="enable-background:new 0 0 543 356;" xml:space="preserve">
<style type="text/css">
	.st0{fill:#ECCDB3;}
	.st1{fill:#3D1518;}
	.st2{fill:#FFFFFF;}
	.st3{fill:#69A67E;}
	.st4{fill:none;stroke:#3E9367;stroke-width:1.15;stroke-linecap:round;stroke-miterlimit:10;}
	.st5{fill:#216C59;}
	.st6{fill:#CCDED9;}
	.st7{fill:none;stroke:#206756;stroke-width:1.15;stroke-linecap:round;stroke-miterlimit:10;}
	.st8{fill:none;stroke:#206756;stroke-width:0.65;stroke-linecap:round;stroke-miterlimit:10;}
	.st9{opacity:0.3;fill:#AED5DF;}
	.st10{fill:none;stroke:#DA8D6B;stroke-width:1.15;stroke-miterlimit:10;}
	.st11{fill:#F8F1C3;}
	.st12{fill:#DA8D6B;}
	.st13{fill:#CEE1DC;}
	.st14{fill:#CDDAB9;}
	.st15{fill:none;stroke:#21705B;stroke-width:2;stroke-linecap:round;stroke-miterlimit:10;}
	.st16{fill:none;stroke:#3D1518;stroke-width:1.15;stroke-miterlimit:10;}
	.st17{clip-path:url(#XMLID_2_);fill:#FCF9DC;}
	.st18{fill:#1E977C;}
	.st19{fill:none;stroke:#21705B;stroke-width:0.75;stroke-linecap:round;stroke-miterlimit:10;}
	.st20{clip-path:url(#XMLID_3_);fill:#FCF9DC;}
	.st21{fill:#206756;}
</style>
<g>
	<path class="st0" d="M315.9,355.6l-135.2-1.2l1.8-202.6c0.1-10.6,8.8-19.1,19.4-19l96.8,0.8c10.6,0.1,19.1,8.8,19,19.4L315.9,355.6
		z"/>
	<path class="st1" d="M323.1,355.9h-12.2V129.8c0-2.1,1.7-3.9,3.9-3.9h4.5c2.1,0,3.9,1.7,3.9,3.9V355.9z"/>
	<path class="st1" d="M191.3,354.5h-12.2V128.3c0-2.1,1.7-3.9,3.9-3.9h4.5c2.1,0,3.9,1.7,3.9,3.9V354.5z"/>
	<rect x="192.5" y="342.4" class="st1" width="130.6" height="13.5"/>
	<path class="st2" d="M220.6,155.3l0.8-13.4l0.2,0l-0.8,13.4L220.6,155.3z"/>
	<path class="st2" d="M213.4,157.8l0.1-0.2l10.2,3.8l-0.1,0.2L213.4,157.8z"/>
	<path class="st2" d="M209.1,141.8l0.2,0l1.6,13.1l-0.2,0L209.1,141.8z"/>
	<path class="st2" d="M208.4,161.2l-0.1-0.2l9.5-4.2l0.1,0.2L208.4,161.2z"/>
	<path class="st3" d="M189.6,181.2c13,37.7-6.8,59.2-6.8,59.2s-0.4,47-24.2,41.5c-16.9-3.9-21.9-41.7-16.8-76.3
		c1.2-8,2.9-15.8,5.2-23c4.5-14.4,11.1-26.4,19.6-32.2C166.6,150.3,185,167.8,189.6,181.2z"/>
	<path class="st2" d="M192.6,355.4l2.6-13.1l97.5-0.2c-0.7-96-54.3-88-80.6-88.2c-27.6-0.3-32.5,13.6-46.9,29.8H128
		c-36.8,0-55.3,29.9-51.9,58.6c0.4,3.3,3.1,13.1,3.1,13.1h35.8L192.6,355.4"/>
	<path class="st4" d="M79.3,355.4c0,0-2.8-9.7-3.1-13.1c-3.4-28.7,15.1-58.6,51.9-58.6h37.2l8.8-9.8"/>
	<path class="st3" d="M159.3,210.7l12.9,49.5c1.1,4.2-2.7,5.9,0.5,8.6c7.1,5.9,21.8,15.4,41.6,15.4c17.3,0,33.7-7.2,40.2-12.2
		c4.1-3.2,7.5-5.5,8.2-10.9l2.9-23.4c0.1-1.1,0.3-2.1,0.6-3.1l2.4-8.8c0,0,8.2-6.3,12-30.8c2.3-14.8-1.2-40.8-24.7-52.6
		c-11.4-5.8-26.9-8.5-44.2-8.5c-59.5,0.3-65.4,54.9-65.4,54.9L159.3,210.7z"/>
	<path class="st5" d="M212.9,284.3c-6.5,0-13.1-1.2-19.6-3.6c-16-5.7-18.7-16.6-18.8-16.7l-0.1-0.1l-7-30.4
		c-0.2-0.6-2.2-5.1-3.9-13.3c-1.6-8-3.2-21-1.8-38.1l0.9,0.1c-1.4,17,0.2,29.9,1.8,37.8c1.7,8.5,3.8,13.1,3.8,13.1l0,0.1l7,30.2
		c1.1,1.1,3.4,11,18.4,16.4c9.3,3.3,18.5,4.3,27.5,2.9c11.1-1.8,29.9-7.3,40-16.4l4-32.4l0-0.1c0.1-0.2,7.7-19.6,5.8-49.6l0.9-0.1
		c1.9,29.3-5.4,48.7-5.9,50l-4,32.7l-0.1,0.1c-10.2,9.3-29.2,14.9-40.6,16.8C218.4,284.1,215.7,284.3,212.9,284.3L212.9,284.3z"/>
	<path class="st3" d="M240.9,62.1c0,0-5.9,6.6-9.4,7.8"/>
	<path class="st5" d="M246.8,56.7c-1.4-0.8-2.6-0.6-3.2-0.5c0.4-6.7-0.7-23.4-20.5-21.1c0,0-13.7,5.7-21.8,3.2
		c-8.1-2.4-15.6-9-22.8-3.3c-7.2,6.4-0.6,11.9-0.6,11.9s-4.7,0.3-7.6-0.6c-5.9-1.9-6.6,7-3.2,8.9c2.4,2.6-3.2,2.5-6.2,5
		c-2.3,1.9-4.7,8.1,1,11.3c5.7,3.2-5.8,6,1.7,9c2.1,0.9,4.9,1.6,8.3,2l5.5,14.9l60.8,2.9c0,0,11.9-10,11.3-14.4
		c-0.6-4.4,2.6-11.1,2.6-11.1C255.5,62.5,248.7,57.7,246.8,56.7L246.8,56.7z"/>
	<path class="st6" d="M213,157.7c-9.1,0-16.7-7.5-16.7-16.7v-24.3c0-9.1,7.5-16.7,16.7-16.7c9.1,0,16.7,7.5,16.7,16.7v24.3
		C229.7,150.2,222.1,157.7,213,157.7z"/>
	<polygon class="st3" points="122.9,206.5 141.6,261.4 156.3,274.5 160.9,209.1 143.6,196.5 	"/>
	<path class="st5" d="M212.7,159.1c-9.4,0-17.2-7.7-17.2-17.2v-24.3c0-9.4,7.7-17.2,17.2-17.2c9.5,0,17.2,7.7,17.2,17.2v24.3
		C229.9,151.4,222.1,159.1,212.7,159.1z M212.7,101.5c-8.9,0-16.1,7.2-16.1,16.1v24.3c0,8.9,7.2,16.1,16.1,16.1
		c8.9,0,16.1-7.2,16.1-16.1v-24.3C228.9,108.7,221.6,101.5,212.7,101.5L212.7,101.5z"/>
	<ellipse class="st5" cx="174.8" cy="85.4" rx="5.3" ry="6.1"/>
	<ellipse class="st5" cx="181.4" cy="104.3" rx="5.3" ry="5.4"/>
	<ellipse class="st5" cx="245" cy="90.6" rx="6.6" ry="6.7"/>
	<path class="st6" d="M180.4,102.8c-5.3,0.3-9.8-4-10.1-9.4s3.9-10,9.2-10.2"/>
	
		<ellipse transform="matrix(0.4471 -0.8945 0.8945 0.4471 39.1088 268.1749)" class="st5" cx="236.5" cy="102.5" rx="9.1" ry="7.1"/>
	<path class="st5" d="M173.5,94.5c-0.1-2.1,0.4-4,1.3-5.4c1-1.6,2.5-2.4,4.3-2.5l0.1,1c-1.5,0.1-2.7,0.8-3.5,2.1
		c-0.8,1.3-1.2,2.9-1.1,4.8L173.5,94.5z"/>
	<ellipse class="st5" cx="232.4" cy="111.7" rx="5.3" ry="5.4"/>
	<path class="st6" d="M235.7,103.3c5.3,0.3,9.8-4,10.1-9.4c0.3-5.4-3.9-10-9.2-10.2"/>
	<path class="st5" d="M242.5,94.7l-1-0.1c0.1-1.7-0.4-3.3-1.4-4.5c-1-1.2-2.3-1.9-3.7-2l0.1-1c1.7,0.1,3.3,0.9,4.5,2.3
		C242,91,242.6,92.8,242.5,94.7L242.5,94.7z"/>
	<path class="st6" d="M207.6,128.1c-15.8,0-28.7-12.9-28.7-28.7V73.3c0-15.8,12.9-28.7,28.7-28.7c15.8,0,28.7,12.9,28.7,28.7v26.1
		C236.3,115.2,223.4,128.1,207.6,128.1L207.6,128.1z"/>
	<path class="st5" d="M207,128.8c-16.1,0-29.2-13.1-29.2-29.2V73.5c0-16.1,13.1-29.2,29.2-29.2s29.2,13.1,29.2,29.2v26.1
		C236.3,115.7,223.1,128.8,207,128.8L207,128.8z M207,45.3c-15.5,0-28.2,12.6-28.2,28.2v26.1c0,15.5,12.6,28.2,28.2,28.2
		s28.2-12.6,28.2-28.2V73.5C235.3,57.9,222.6,45.3,207,45.3L207,45.3z"/>
	<path class="st5" d="M230,66.6c0.4-0.1,6.6,19.2,5.7,25.6c0,0,4.7-3.8,4.5-6.1c0,0,1.5,1.7,4.2-1.6c2.8-3.2-7.7-23-7.7-23L230,66.6
		z"/>
	<circle class="st5" cx="219.2" cy="92.6" r="2.4"/>
	<circle class="st5" cx="190.7" cy="92.8" r="2.4"/>
	<path class="st5" d="M211.3,112.3c-1.8,3.9-5.8,5.7-9.9,4.4c-0.6-0.2-1.7,0.7-0.9,1c4.9,1.5,9.9-0.6,12.1-5.2
		C213,111.7,211.6,111.7,211.3,112.3L211.3,112.3z"/>
	<path class="st5" d="M227.6,86.9c-0.4,0-0.8-0.3-1-0.7c-0.1-0.2-1.5-4.4-6.2-5.1c-4.8-0.7-7.1,2.1-7.2,2.2c-0.4,0.5-1,0.5-1.4,0.2
		s-0.5-1-0.2-1.4c0.1-0.2,3.1-3.8,9-3c6,0.9,7.8,6.3,7.9,6.5c0.2,0.6-0.2,1.1-0.7,1.3C227.8,86.9,227.7,86.9,227.6,86.9L227.6,86.9z
		"/>
	<path class="st5" d="M183.1,88.3c-0.1,0-0.2,0-0.3-0.1c-0.6-0.2-0.8-0.8-0.7-1.3c0.1-0.3,1.9-5.6,7.9-6.5c6-0.9,8.9,2.8,9,3
		c0.4,0.5,0.3,1.1-0.2,1.4c-0.5,0.4-1.1,0.3-1.4-0.2c-0.1-0.1-2.4-2.9-7.2-2.2c-4.8,0.7-6.2,5.1-6.2,5.1
		C184,88.1,183.6,88.3,183.1,88.3L183.1,88.3z"/>
	<path class="st5" d="M242,61.4c0,0-13.5,19.7-18.9,12c0,0-10.6,8.4-13.4,5.5c-2.6-2.7-2.1-5.2-2.1-5.2s-11.8,15.3-31,10.9
		s-4.4-26.5-4.4-26.5l21.2-14.9l30.4,0.1L242,61.4z"/>
	<path class="st2" d="M231.6,73.4c-0.1,0-0.2,0-0.3-0.2s0-0.3,0.1-0.4c4.5-2.7,6.1-6.3,6.1-6.3c0-0.1,0.2-0.2,0.3-0.1
		c0.1,0,0.2,0.2,0.1,0.4C237.9,67,236.2,70.6,231.6,73.4C231.6,73.4,231.6,73.4,231.6,73.4L231.6,73.4z"/>
	<path class="st6" d="M103.7,181.5c0,0-5.3,0.8-4.2,10.8c0.8,6.9,6.1,4.4,4.7-0.3l3.7,2.3c1.2,0.8,2.9,0.4,3.6-0.9l0,0l1.9,3
		c1.9,3,4.8,5.1,8.1,6l1.4,4l20.8-9.7c0,0,0.6,2-0.4-2.7c-1.9-8.8-6-22.1-14.4-26.6c-12.9-6.9-19.4,5.6-19.4,5.6
		S103.7,173.1,103.7,181.5z"/>
	<path class="st7" d="M103.7,181.5c0,0-0.7,8.9,2.6,11.6"/>
	<path class="st5" d="M199.7,90.7c0.3,3.2,0.3,5.8-1.6,8.5c-0.9,1.4-2,2.7-2.1,4.4c-0.2,3.2,3,5.1,5.8,5.5c0.8,0.1,1.5-0.9,0.5-1.1
		c-2.3-0.4-4.9-1.9-4.8-4.5c0.1-1.9,1.5-3.2,2.4-4.7c1.7-2.7,1.6-5.5,1.3-8.5C201.1,89.6,199.7,90,199.7,90.7z"/>
	<path class="st4" d="M231.6,288.3h-49c-3.8,0-7.4,0.4-11,1c0,0-14.3,4.2-20.6,8.3c-14.5,9.6-24,25.4-24,43.4v14.5"/>
	<path class="st4" d="M292.7,342.1c-0.3-43.7-11.6-65.9-26.3-77"/>
	<path class="st6" d="M115.8,169.1c-14.8,17.1-12.8,16.1-5.6,24.8c0.7,0.8,0.5,5.2,1.5,5l4.2-5.4c1.2-0.3,2.1-1.4,2.1-2.7
		c-0.1-3.3,0.6-9.7,6.5-13.6"/>
	<path class="st7" d="M116,168.3c-3,3.5-8.7,17.2-5.2,29c1,3.2,3.7,0.2,4.2-5.9c0.3-3.3,4.9-12.2,10.7-16"/>
	<path class="st8" d="M101.6,183.2"/>
	<path class="st7" d="M127,186c0,0,2.6,5.4-5.9,9c-1.7,0.7-4.3,5.1,6,4.1c15.2-1.5,12.3-13.8,12.3-13.8"/>
	<ellipse class="st5" cx="246.1" cy="81.9" rx="5.3" ry="5.4"/>
	<ellipse class="st5" cx="203.6" cy="75.2" rx="5.3" ry="5.4"/>
	<ellipse class="st5" cx="168.7" cy="80.2" rx="5.3" ry="5.4"/>
	<path class="st3" d="M262.5,244.6c0,0-8.3-15-10-17.8c-4.6-8.2-9.8-22.1-7.8-41.2c2.5-24,6.8-31.8,12-34.7c1.5-0.8,1.8-7,3-6
		c19.6,6.9,45,81.2,47.4,118.1l-3.2,0.5C303.6,263.3,271.9,263.5,262.5,244.6z"/>
	<path class="st7" d="M262,225.8"/>
	<path class="st7" d="M258.4,163c0,0-8.3,8.1-6.6,24.6s5.7,39.2,5.7,39.2"/>
	<path class="st9" d="M500,144.5h-59.9c-3.4,0-6.2-2.8-6.2-6.2V42.8c0-3.4,2.8-6.2,6.2-6.2H500c3.4,0,6.2,2.8,6.2,6.2v95.5
		C506.2,141.7,503.4,144.5,500,144.5z"/>
	<path class="st10" d="M496.3,144.6h-59.9c-3.4,0-6.2-2.8-6.2-6.2V42.9c0-3.4,2.8-6.2,6.2-6.2h59.9c3.4,0,6.2,2.8,6.2,6.2v95.5
		C502.5,141.9,499.8,144.6,496.3,144.6z"/>
	<line class="st10" x1="465.9" y1="36.5" x2="465.9" y2="144.4"/>
	<line class="st10" x1="430.2" y1="90.7" x2="502.5" y2="90.7"/>
	<g>
		<polygon class="st11" points="80.6,212.4 80.6,216.4 82.1,216.5 82.2,212 		"/>
		<path class="st11" d="M82.1,210.4l83.9-1.3c1.9,0,3.8,0.7,5.4,2.2l47.1,42.2c1.3,1.1,0.7,3.9-0.8,3.9h-92.9
			c-0.3,0-0.6-0.1-0.8-0.4l-42.7-42.8C80.1,213,80.7,210.4,82.1,210.4z"/>
		<path class="st12" d="M82.1,213.9l85.1-1.3c1.1,0,2.2,0.4,3.2,1.3l48.1,43.1c1.3,1.1,0.7,3.9-0.8,3.9h-92.9
			c-0.3,0-0.6-0.1-0.8-0.4l-42.7-42.8C80.1,216.6,80.7,213.9,82.1,213.9z"/>
	</g>
	<line class="st7" x1="143.6" y1="196.5" x2="153" y2="208.8"/>
	<g>
		<path class="st13" d="M198.8,244.6l-24.9-1.9l-3,1.6c-11.4,10.3-23.2,0.4-23.2,0.4c-2.2-1.8-7.3-1.3-6.2,0.5
			c0,0,10.8,9.6,10.4,9.7c-4.9,2.3-15.6-5.2-15.6-5.2c-1.9-1.1-4,1.2-2.7,3.1l10.6,8.8l-6.9-3.1c-3.5-1.4-5,1-4,2l11,10.8
			c4.8,4.9,58.8,1.4,58.8,1.4L198.8,244.6z"/>
		<path class="st7" d="M161.7,258.1c0,0-5.2,1-9.5-2.7"/>
		<path class="st7" d="M154,265.9c0,0-5.4,0.2-9.2-4"/>
		<path class="st13" d="M178.1,243.5c-0.7-0.8-10.2-7.7-13-7.8s2.2,11.6,2.2,11.6C167.7,248,178.1,243.5,178.1,243.5z"/>
		<line class="st7" x1="170.9" y1="244.3" x2="167.3" y2="247.3"/>
	</g>
	<polygon class="st3" points="187.4,273.7 265.5,270.4 296.8,269.1 305,268.8 279.3,226.5 187.3,243.8 	"/>
	<line class="st7" x1="195.7" y1="242.9" x2="262" y2="225.8"/>
	<path class="st7" d="M186.9,273.2c0.5-0.2,67.3-2,67.3-2"/>
	<line class="st7" x1="396.1" y1="118.1" x2="396.1" y2="135.7"/>
	<circle class="st0" cx="394.4" cy="108.7" r="10.6"/>
	<g>
		<circle class="st10" cx="389.1" cy="108" r="5"/>
		<circle class="st10" cx="392.4" cy="101.3" r="5"/>
		<circle class="st10" cx="392.4" cy="114.2" r="5"/>
		<circle class="st10" cx="403.4" cy="108" r="5"/>
		<circle class="st10" cx="400.1" cy="101.3" r="5"/>
		<circle class="st10" cx="400.1" cy="114.2" r="5"/>
	</g>
	<path class="st14" d="M398.6,152.1c-28.6-22.4-14.4-28.2-14.4-28.2C396.9,121.1,399,152.3,398.6,152.1z"/>
	<path class="st7" d="M398,152.7c-28.6-22.4-14.4-28.2-14.4-28.2C396.3,121.7,398.3,153,398,152.7z"/>
	<path class="st14" d="M394.2,151.9c28.4-22.7,14.2-28.3,14.2-28.3C395.6,120.9,393.8,152.2,394.2,151.9z"/>
	<path class="st7" d="M394.9,152.6c28.4-22.7,14.2-28.3,14.2-28.3C396.3,121.6,394.5,152.8,394.9,152.6z"/>
	<path class="st12" d="M397.4,139.3"/>
	<path class="st14" d="M397,160.2c-34-12.8-22.2-22.5-22.2-22.5C386.1,131.2,397.4,160.4,397,160.2z"/>
	<path class="st7" d="M396.6,161c-34-12.8-22.2-22.5-22.2-22.5C385.6,132,397,161.2,396.6,161z"/>
	<path class="st14" d="M395.5,160.2c34-12.8,22.2-22.5,22.2-22.5C406.4,131.2,395,160.4,395.5,160.2z"/>
	<path class="st7" d="M395.9,161c34-12.8,22.2-22.5,22.2-22.5C406.8,132,395.5,161.2,395.9,161z"/>
	<path class="st14" d="M395.8,160.9c0,0-14.9-24.1,0.2-25.2C396.1,135.8,410.5,135.8,395.8,160.9z"/>
	<path class="st7" d="M396,162.1c0,0-14.9-24.1,0.2-25.2C396.2,136.9,410.7,137,396,162.1z"/>
	<path class="st12" d="M397.1,184.2"/>
	<path class="st12" d="M397.4,153"/>
	<path class="st14" d="M396.9,177.3c-39.5-14.8-25.8-26.2-25.8-26.2C384.2,143.5,397.3,177.4,396.9,177.3z"/>
	<path class="st7" d="M396.4,178.2c-39.5-14.8-25.8-26.2-25.8-26.2C383.7,144.4,396.8,178.4,396.4,178.2z"/>
	<path class="st14" d="M395.1,177.3c39.5-14.8,25.8-26.2,25.8-26.2C407.8,143.5,394.6,177.4,395.1,177.3z"/>
	<path class="st7" d="M395.6,178.2c39.5-14.8,25.8-26.2,25.8-26.2C408.3,144.4,395.1,178.4,395.6,178.2z"/>
	<path class="st14" d="M395.5,178c0,0-17.3-28,0.3-29.2C395.8,148.8,412.5,148.9,395.5,178z"/>
	<path class="st7" d="M395.7,179.4c0,0-17.3-28,0.3-29.2C396,150.2,412.8,150.3,395.7,179.4z"/>
	<path class="st12" d="M397.6,168.3"/>
	<path class="st14" d="M397,196.3c-45.6-17.1-29.8-30.2-29.8-30.2C382.4,157.4,397.6,196.5,397,196.3z"/>
	<path class="st7" d="M396.4,197.4c-45.6-17.1-29.8-30.2-29.8-30.2C381.8,158.5,397,197.6,396.4,197.4z"/>
	<path class="st14" d="M394.9,196.3c45.6-17.1,29.8-30.2,29.8-30.2C409.6,157.4,394.4,196.5,394.9,196.3z"/>
	<path class="st7" d="M395.5,197.4c45.6-17.1,29.8-30.2,29.8-30.2C410.2,158.5,395,197.6,395.5,197.4z"/>
	<path class="st14" d="M395.4,197.2c0,0-19.9-32.3,0.3-33.7C395.7,163.6,415.1,163.6,395.4,197.2z"/>
	<path class="st7" d="M395.7,198.8c0,0-19.9-32.3,0.3-33.7C396,165.1,415.3,165.2,395.7,198.8z"/>
	<path class="st14" d="M394.2,215.4c49.4-19.1,32.2-33.6,32.2-33.6C410.1,172.1,393.7,215.6,394.2,215.4z"/>
	<path class="st7" d="M394.9,216.6c49.4-19.1,32.2-33.6,32.2-33.6C410.7,173.2,394.3,216.8,394.9,216.6z"/>
	<path class="st14" d="M396.5,215.4c-49.4-19.1-32.2-33.6-32.2-33.6C380.6,172.1,397.1,215.6,396.5,215.4z"/>
	<path class="st7" d="M395.8,216.6c-49.4-19.1-32.2-33.6-32.2-33.6C380,173.2,396.4,216.8,395.8,216.6z"/>
	<path class="st14" d="M394.8,216.4c0,0-21.6-36,0.3-37.5C395.1,178.9,416.1,179,394.8,216.4z"/>
	<path class="st7" d="M395,218.2c0,0-21.6-36,0.3-37.5C395.4,180.6,416.3,180.7,395,218.2z"/>
	<path class="st12" d="M425.1,216.5h-59.9c-2.8,0-5.1-2.3-5.1-5.1l0,0c0-2.8,2.3-5.1,5.1-5.1h59.9c2.8,0,5.1,2.3,5.1,5.1l0,0
		C430.1,214.2,427.9,216.5,425.1,216.5z"/>
	<polyline class="st12" points="430.1,212.2 412.7,263.6 377.5,263.6 360.2,212.2 	"/>
	<line class="st15" x1="364.1" y1="217.5" x2="425.6" y2="217.5"/>
	<rect x="371.6" y="286.3" class="st1" width="12.4" height="72"/>
	<path class="st0" d="M490.8,288.5H271c-3.1,0-5.6-2.5-5.6-5.6v-13.8c0-3.1,2.5-5.6,5.6-5.6h219.7V288.5z"/>
	<path class="st16" d="M490.8,290.1H271c-3.1,0-5.6-2.5-5.6-5.6v-13.8c0-3.1,2.5-5.6,5.6-5.6h219.7V290.1z"/>
	<g>
		<g>
			<defs>
				<path id="XMLID_34_" d="M401,263.5h-78.5v-22H401c0.9,0,1.6,0.7,1.6,1.6v18.8C402.6,262.8,401.9,263.5,401,263.5z"/>
			</defs>
			<use xlink:href="#XMLID_34_"  style="overflow:visible;fill:#1E977C;"/>
			<clipPath id="XMLID_2_">
				<use xlink:href="#XMLID_34_"  style="overflow:visible;"/>
			</clipPath>
			<path class="st17" d="M379.1,261h-66.6c-1.3,0-2.3-1-2.3-2.3v-12.4c0-1.3,1-2.3,2.3-2.3h66.6c1.3,0,2.3,1,2.3,2.3v12.4
				C381.4,260,380.4,261,379.1,261z"/>
		</g>
		<path class="st18" d="M389.1,244.1h-69.5c-0.5,0-0.8-0.4-0.8-0.8v-0.9c0-0.5,0.4-0.8,0.8-0.8h69.5V244.1z"/>
		<path class="st18" d="M388.3,263.5h-68.7c-0.4,0-0.8-0.4-0.8-0.8v-1c0-0.4,0.4-0.8,0.8-0.8h68.7c0.4,0,0.8,0.4,0.8,0.8v1
			C389.2,263.2,388.8,263.5,388.3,263.5z"/>
		<line class="st19" x1="323" y1="247.2" x2="374.8" y2="247.2"/>
		<line class="st19" x1="323" y1="252.6" x2="374.8" y2="252.6"/>
		<line class="st19" x1="323" y1="258" x2="374.8" y2="258"/>
	</g>
	<g>
		<g>
			<defs>
				<path id="XMLID_33_" d="M396.8,241.7h-62.9V224h62.9c0.9,0,1.6,0.7,1.6,1.6v14.5C398.4,241,397.7,241.7,396.8,241.7z"/>
			</defs>
			<use xlink:href="#XMLID_33_"  style="overflow:visible;fill:#206756;"/>
			<clipPath id="XMLID_3_">
				<use xlink:href="#XMLID_33_"  style="overflow:visible;"/>
			</clipPath>
			<path class="st20" d="M379,239.7h-52.7c-1.3,0-2.3-1-2.3-2.3v-9.1c0-1.3,1-2.3,2.3-2.3H379c1.3,0,2.3,1,2.3,2.3v9.1
				C381.3,238.7,380.3,239.7,379,239.7z"/>
		</g>
		<path class="st21" d="M387.5,226.1h-56c-0.4,0-0.7-0.3-0.7-0.7v-0.8c0-0.4,0.3-0.7,0.7-0.7h56V226.1z"/>
		<path class="st21" d="M386.9,241.7h-55.3c-0.4,0-0.7-0.3-0.7-0.7v-0.8c0-0.4,0.3-0.7,0.7-0.7h55.3c0.4,0,0.7,0.3,0.7,0.7v0.8
			C387.6,241.4,387.3,241.7,386.9,241.7z"/>
		<line class="st19" x1="334.3" y1="228.5" x2="376" y2="228.5"/>
		<line class="st19" x1="334.3" y1="232.9" x2="376" y2="232.9"/>
		<line class="st19" x1="334.3" y1="237.2" x2="376" y2="237.2"/>
	</g>
</g>
<line class="st7" x1="120.9" y1="217.6" x2="130.9" y2="217.6"/>
<line class="st7" x1="169.1" y1="209.9" x2="168.9" y2="212.7"/>
</svg>
