<svg id="Outlines" xmlns="http://www.w3.org/2000/svg" width="80" height="54" viewBox="0 0 80 54"><rect width="80" height="54" fill="none"/><path d="M20.892,43.5h6.2163l.7838,3.6187A2.81,2.81,0,0,0,30.82,49.3062c.0249.0019.043.0034.0689.0048a.3447.3447,0,0,1,.3462.3448.34.34,0,0,1-.2437.3237.1227.1227,0,0,1-.042.0151V50H17.0532v-.0054a.16.16,0,0,1-.0425-.0151.3415.3415,0,0,1,.1026-.6685c.0263-.0014.0454-.0029.0693-.0048A2.8082,2.8082,0,0,0,20.11,47.1187ZM36,41.5a2.4767,2.4767,0,0,0,.5127,1.5H1.5723A1.81,1.81,0,0,1,0,41.4688V11.5313A1.7657,1.7657,0,0,1,1.5308,10h44.938A1.7657,1.7657,0,0,1,48,11.5313V13H46V12H2V37H36ZM23.9951,39.3057l0,.0371c.0015.01.0137.0136.0376.0136a.3485.3485,0,0,0,.1709-.0454.516.516,0,0,0,.1509-.123.6.6,0,0,0,.1064-.1738.5222.5222,0,0,0,.0406-.1954v-.0273a.081.081,0,0,0-.004-.0254.4584.4584,0,0,0-.1909.0532.6043.6043,0,0,0-.16.125.6556.6556,0,0,0-.1109.1729A.4724.4724,0,0,0,23.9951,39.3057ZM25.022,40.64a.5442.5442,0,0,1-.2481-.2109.5521.5521,0,0,1-.0888-.3071.5963.5963,0,0,1,.0629-.28.5518.5518,0,0,1,.2076-.2056.5554.5554,0,0,0-.21-.186.5858.5858,0,0,0-.28-.0708.4939.4939,0,0,0-.1074.0122c-.0347.0078-.08.022-.1382.042-.0591.0225-.1064.0386-.1382.05a.209.209,0,0,1-.0639.0171.5619.5619,0,0,1-.1831-.0571.6257.6257,0,0,0-.2315-.0557.5517.5517,0,0,0-.2456.0557.6073.6073,0,0,0-.1977.1591.7674.7674,0,0,0-.1343.2417.9275.9275,0,0,0-.0479.3042,1.3145,1.3145,0,0,0,.021.2188,1.6464,1.6464,0,0,0,.0523.2226,1.7508,1.7508,0,0,0,.0835.2159,1.5715,1.5715,0,0,0,.1074.1894,1.6627,1.6627,0,0,0,.1157.1548.6611.6611,0,0,0,.0962.1.3637.3637,0,0,0,.09.0537.26.26,0,0,0,.0884.0151.3151.3151,0,0,0,.0825-.0151c.0323-.0112.0694-.022.1094-.0351s.0777-.0249.1177-.0357a.357.357,0,0,1,.1084-.0171.4183.4183,0,0,1,.1025.0147c.0371.0122.0747.0229.1123.0351s.0728.0235.1089.0342a.3263.3263,0,0,0,.09.0156.2256.2256,0,0,0,.1108-.0263.564.564,0,0,0,.1069-.0733c.0171-.019.043-.0464.0757-.0849.03-.0386.062-.0845.0957-.1358.0318-.05.0625-.1069.0928-.1665A1.5316,1.5316,0,0,0,25.022,40.64ZM80,15.5v26A1.5,1.5,0,0,1,78.5,43h-40A1.5,1.5,0,0,1,37,41.5v-26A1.5,1.5,0,0,1,38.5,14h40A1.5,1.5,0,0,1,80,15.5ZM79,15H38V38H79ZM53,50H64V43.5H53Z" fill="#1d1d1f"/></svg>