<svg version="1.1" xmlns="http://www.w3.org/2000/svg" xmlns:xlink="http://www.w3.org/1999/xlink" width="411.919921875" height="667"><defs/><g><text fill="#eeeeee" stroke="none" font-family="Arial" font-size="24px" font-style="normal" font-weight="normal" text-decoration="none" x="0" y="0">UNREGISTERED</text><text fill="#eeeeee" stroke="none" font-family="Arial" font-size="24px" font-style="normal" font-weight="normal" text-decoration="none" x="0" y="30">UNREGISTERED</text><text fill="#eeeeee" stroke="none" font-family="Arial" font-size="24px" font-style="normal" font-weight="normal" text-decoration="none" x="0" y="60">UNREGISTERED</text><text fill="#eeeeee" stroke="none" font-family="Arial" font-size="24px" font-style="normal" font-weight="normal" text-decoration="none" x="0" y="90">UNREGISTERED</text><text fill="#eeeeee" stroke="none" font-family="Arial" font-size="24px" font-style="normal" font-weight="normal" text-decoration="none" x="0" y="120">UNREGISTERED</text><text fill="#eeeeee" stroke="none" font-family="Arial" font-size="24px" font-style="normal" font-weight="normal" text-decoration="none" x="0" y="150">UNREGISTERED</text><text fill="#eeeeee" stroke="none" font-family="Arial" font-size="24px" font-style="normal" font-weight="normal" text-decoration="none" x="0" y="180">UNREGISTERED</text><text fill="#eeeeee" stroke="none" font-family="Arial" font-size="24px" font-style="normal" font-weight="normal" text-decoration="none" x="0" y="210">UNREGISTERED</text><text fill="#eeeeee" stroke="none" font-family="Arial" font-size="24px" font-style="normal" font-weight="normal" text-decoration="none" x="0" y="240">UNREGISTERED</text><text fill="#eeeeee" stroke="none" font-family="Arial" font-size="24px" font-style="normal" font-weight="normal" text-decoration="none" x="0" y="270">UNREGISTERED</text><text fill="#eeeeee" stroke="none" font-family="Arial" font-size="24px" font-style="normal" font-weight="normal" text-decoration="none" x="0" y="300">UNREGISTERED</text><text fill="#eeeeee" stroke="none" font-family="Arial" font-size="24px" font-style="normal" font-weight="normal" text-decoration="none" x="0" y="330">UNREGISTERED</text><text fill="#eeeeee" stroke="none" font-family="Arial" font-size="24px" font-style="normal" font-weight="normal" text-decoration="none" x="0" y="360">UNREGISTERED</text><text fill="#eeeeee" stroke="none" font-family="Arial" font-size="24px" font-style="normal" font-weight="normal" text-decoration="none" x="0" y="390">UNREGISTERED</text><text fill="#eeeeee" stroke="none" font-family="Arial" font-size="24px" font-style="normal" font-weight="normal" text-decoration="none" x="0" y="420">UNREGISTERED</text><text fill="#eeeeee" stroke="none" font-family="Arial" font-size="24px" font-style="normal" font-weight="normal" text-decoration="none" x="0" y="450">UNREGISTERED</text><text fill="#eeeeee" stroke="none" font-family="Arial" font-size="24px" font-style="normal" font-weight="normal" text-decoration="none" x="0" y="480">UNREGISTERED</text><text fill="#eeeeee" stroke="none" font-family="Arial" font-size="24px" font-style="normal" font-weight="normal" text-decoration="none" x="0" y="510">UNREGISTERED</text><text fill="#eeeeee" stroke="none" font-family="Arial" font-size="24px" font-style="normal" font-weight="normal" text-decoration="none" x="0" y="540">UNREGISTERED</text><text fill="#eeeeee" stroke="none" font-family="Arial" font-size="24px" font-style="normal" font-weight="normal" text-decoration="none" x="0" y="570">UNREGISTERED</text><text fill="#eeeeee" stroke="none" font-family="Arial" font-size="24px" font-style="normal" font-weight="normal" text-decoration="none" x="0" y="600">UNREGISTERED</text><text fill="#eeeeee" stroke="none" font-family="Arial" font-size="24px" font-style="normal" font-weight="normal" text-decoration="none" x="0" y="630">UNREGISTERED</text><text fill="#eeeeee" stroke="none" font-family="Arial" font-size="24px" font-style="normal" font-weight="normal" text-decoration="none" x="0" y="660">UNREGISTERED</text><text fill="#eeeeee" stroke="none" font-family="Arial" font-size="24px" font-style="normal" font-weight="normal" text-decoration="none" x="200" y="0">UNREGISTERED</text><text fill="#eeeeee" stroke="none" font-family="Arial" font-size="24px" font-style="normal" font-weight="normal" text-decoration="none" x="200" y="30">UNREGISTERED</text><text fill="#eeeeee" stroke="none" font-family="Arial" font-size="24px" font-style="normal" font-weight="normal" text-decoration="none" x="200" y="60">UNREGISTERED</text><text fill="#eeeeee" stroke="none" font-family="Arial" font-size="24px" font-style="normal" font-weight="normal" text-decoration="none" x="200" y="90">UNREGISTERED</text><text fill="#eeeeee" stroke="none" font-family="Arial" font-size="24px" font-style="normal" font-weight="normal" text-decoration="none" x="200" y="120">UNREGISTERED</text><text fill="#eeeeee" stroke="none" font-family="Arial" font-size="24px" font-style="normal" font-weight="normal" text-decoration="none" x="200" y="150">UNREGISTERED</text><text fill="#eeeeee" stroke="none" font-family="Arial" font-size="24px" font-style="normal" font-weight="normal" text-decoration="none" x="200" y="180">UNREGISTERED</text><text fill="#eeeeee" stroke="none" font-family="Arial" font-size="24px" font-style="normal" font-weight="normal" text-decoration="none" x="200" y="210">UNREGISTERED</text><text fill="#eeeeee" stroke="none" font-family="Arial" font-size="24px" font-style="normal" font-weight="normal" text-decoration="none" x="200" y="240">UNREGISTERED</text><text fill="#eeeeee" stroke="none" font-family="Arial" font-size="24px" font-style="normal" font-weight="normal" text-decoration="none" x="200" y="270">UNREGISTERED</text><text fill="#eeeeee" stroke="none" font-family="Arial" font-size="24px" font-style="normal" font-weight="normal" text-decoration="none" x="200" y="300">UNREGISTERED</text><text fill="#eeeeee" stroke="none" font-family="Arial" font-size="24px" font-style="normal" font-weight="normal" text-decoration="none" x="200" y="330">UNREGISTERED</text><text fill="#eeeeee" stroke="none" font-family="Arial" font-size="24px" font-style="normal" font-weight="normal" text-decoration="none" x="200" y="360">UNREGISTERED</text><text fill="#eeeeee" stroke="none" font-family="Arial" font-size="24px" font-style="normal" font-weight="normal" text-decoration="none" x="200" y="390">UNREGISTERED</text><text fill="#eeeeee" stroke="none" font-family="Arial" font-size="24px" font-style="normal" font-weight="normal" text-decoration="none" x="200" y="420">UNREGISTERED</text><text fill="#eeeeee" stroke="none" font-family="Arial" font-size="24px" font-style="normal" font-weight="normal" text-decoration="none" x="200" y="450">UNREGISTERED</text><text fill="#eeeeee" stroke="none" font-family="Arial" font-size="24px" font-style="normal" font-weight="normal" text-decoration="none" x="200" y="480">UNREGISTERED</text><text fill="#eeeeee" stroke="none" font-family="Arial" font-size="24px" font-style="normal" font-weight="normal" text-decoration="none" x="200" y="510">UNREGISTERED</text><text fill="#eeeeee" stroke="none" font-family="Arial" font-size="24px" font-style="normal" font-weight="normal" text-decoration="none" x="200" y="540">UNREGISTERED</text><text fill="#eeeeee" stroke="none" font-family="Arial" font-size="24px" font-style="normal" font-weight="normal" text-decoration="none" x="200" y="570">UNREGISTERED</text><text fill="#eeeeee" stroke="none" font-family="Arial" font-size="24px" font-style="normal" font-weight="normal" text-decoration="none" x="200" y="600">UNREGISTERED</text><text fill="#eeeeee" stroke="none" font-family="Arial" font-size="24px" font-style="normal" font-weight="normal" text-decoration="none" x="200" y="630">UNREGISTERED</text><text fill="#eeeeee" stroke="none" font-family="Arial" font-size="24px" font-style="normal" font-weight="normal" text-decoration="none" x="200" y="660">UNREGISTERED</text><text fill="#eeeeee" stroke="none" font-family="Arial" font-size="24px" font-style="normal" font-weight="normal" text-decoration="none" x="400" y="0">UNREGISTERED</text><text fill="#eeeeee" stroke="none" font-family="Arial" font-size="24px" font-style="normal" font-weight="normal" text-decoration="none" x="400" y="30">UNREGISTERED</text><text fill="#eeeeee" stroke="none" font-family="Arial" font-size="24px" font-style="normal" font-weight="normal" text-decoration="none" x="400" y="60">UNREGISTERED</text><text fill="#eeeeee" stroke="none" font-family="Arial" font-size="24px" font-style="normal" font-weight="normal" text-decoration="none" x="400" y="90">UNREGISTERED</text><text fill="#eeeeee" stroke="none" font-family="Arial" font-size="24px" font-style="normal" font-weight="normal" text-decoration="none" x="400" y="120">UNREGISTERED</text><text fill="#eeeeee" stroke="none" font-family="Arial" font-size="24px" font-style="normal" font-weight="normal" text-decoration="none" x="400" y="150">UNREGISTERED</text><text fill="#eeeeee" stroke="none" font-family="Arial" font-size="24px" font-style="normal" font-weight="normal" text-decoration="none" x="400" y="180">UNREGISTERED</text><text fill="#eeeeee" stroke="none" font-family="Arial" font-size="24px" font-style="normal" font-weight="normal" text-decoration="none" x="400" y="210">UNREGISTERED</text><text fill="#eeeeee" stroke="none" font-family="Arial" font-size="24px" font-style="normal" font-weight="normal" text-decoration="none" x="400" y="240">UNREGISTERED</text><text fill="#eeeeee" stroke="none" font-family="Arial" font-size="24px" font-style="normal" font-weight="normal" text-decoration="none" x="400" y="270">UNREGISTERED</text><text fill="#eeeeee" stroke="none" font-family="Arial" font-size="24px" font-style="normal" font-weight="normal" text-decoration="none" x="400" y="300">UNREGISTERED</text><text fill="#eeeeee" stroke="none" font-family="Arial" font-size="24px" font-style="normal" font-weight="normal" text-decoration="none" x="400" y="330">UNREGISTERED</text><text fill="#eeeeee" stroke="none" font-family="Arial" font-size="24px" font-style="normal" font-weight="normal" text-decoration="none" x="400" y="360">UNREGISTERED</text><text fill="#eeeeee" stroke="none" font-family="Arial" font-size="24px" font-style="normal" font-weight="normal" text-decoration="none" x="400" y="390">UNREGISTERED</text><text fill="#eeeeee" stroke="none" font-family="Arial" font-size="24px" font-style="normal" font-weight="normal" text-decoration="none" x="400" y="420">UNREGISTERED</text><text fill="#eeeeee" stroke="none" font-family="Arial" font-size="24px" font-style="normal" font-weight="normal" text-decoration="none" x="400" y="450">UNREGISTERED</text><text fill="#eeeeee" stroke="none" font-family="Arial" font-size="24px" font-style="normal" font-weight="normal" text-decoration="none" x="400" y="480">UNREGISTERED</text><text fill="#eeeeee" stroke="none" font-family="Arial" font-size="24px" font-style="normal" font-weight="normal" text-decoration="none" x="400" y="510">UNREGISTERED</text><text fill="#eeeeee" stroke="none" font-family="Arial" font-size="24px" font-style="normal" font-weight="normal" text-decoration="none" x="400" y="540">UNREGISTERED</text><text fill="#eeeeee" stroke="none" font-family="Arial" font-size="24px" font-style="normal" font-weight="normal" text-decoration="none" x="400" y="570">UNREGISTERED</text><text fill="#eeeeee" stroke="none" font-family="Arial" font-size="24px" font-style="normal" font-weight="normal" text-decoration="none" x="400" y="600">UNREGISTERED</text><text fill="#eeeeee" stroke="none" font-family="Arial" font-size="24px" font-style="normal" font-weight="normal" text-decoration="none" x="400" y="630">UNREGISTERED</text><text fill="#eeeeee" stroke="none" font-family="Arial" font-size="24px" font-style="normal" font-weight="normal" text-decoration="none" x="400" y="660">UNREGISTERED</text><g transform="translate(-206,-38) scale(1,1)"><path fill="#C0C0C0" stroke="none" d="M 289 262 L 476 262 Q 486 262 486 272 L 486 692 Q 486 702 476 702 L 289 702 Q 279 702 279 692 L 279 272 Q 279 262 289 262 Z" opacity="0.2"/></g><g transform="translate(-206,-38) scale(1,1)"><path fill="#ffffff" stroke="none" d="M 282 255 L 469 255 Q 479 255 479 265 L 479 685 Q 479 695 469 695 L 282 695 Q 272 695 272 685 L 272 265 Q 272 255 282 255 Z"/></g><g transform="translate(-206,-38) scale(1,1)"><path fill="none" stroke="#000000" d="M 282 255 L 469 255 Q 479 255 479 265 L 479 685 Q 479 695 469 695 L 282 695 Q 272 695 272 685 L 272 265 Q 272 255 282 255 Z" stroke-miterlimit="10"/></g><g transform="translate(-206,-38) scale(1,1)"><path fill="none" stroke="#000000" d="M 272 280 L 479 280" stroke-miterlimit="10"/></g><g transform="translate(-206,-38) scale(1,1)"><g><path fill="none" stroke="none"/><text fill="#000000" stroke="none" font-family="Arial" font-size="13px" font-style="normal" font-weight="bold" text-decoration="none" x="347.31640625" y="274.5">Funcional</text></g></g><g transform="translate(-206,-38) scale(1,1)"><path fill="#C0C0C0" stroke="none" d="M 223 74.5 C 223 69.2532944 227.2532944 65 232.5 65 C 237.7467056 65 242 69.2532944 242 74.5 C 242 79.7467056 237.7467056 84 232.5 84 C 227.2532944 84 223 79.7467056 223 74.5 Z" opacity="0.2"/></g><g transform="translate(-206,-38) scale(1,1)"><path fill="#000000" stroke="none" d="M 216 67.5 C 216 62.2532944 220.2532944 58 225.5 58 C 230.7467056 58 235 62.2532944 235 67.5 C 235 72.7467056 230.7467056 77 225.5 77 C 220.2532944 77 216 72.7467056 216 67.5 Z"/></g><g transform="translate(-206,-38) scale(1,1)"><path fill="#C0C0C0" stroke="none" d="M 556 482.5 C 556 475.59644 561.59644 470 568.5 470 C 575.40356 470 581 475.59644 581 482.5 C 581 489.40356 575.40356 495 568.5 495 C 561.59644 495 556 489.40356 556 482.5 Z" opacity="0.2"/></g><g transform="translate(-206,-38) scale(1,1)"><path fill="none" stroke="#000000" d="M 549 475.5 C 549 468.59644 554.59644 463 561.5 463 C 568.40356 463 574 468.59644 574 475.5 C 574 482.40356 568.40356 488 561.5 488 C 554.59644 488 549 482.40356 549 475.5 Z" stroke-miterlimit="10"/></g><g transform="translate(-206,-38) scale(1,1)"><path fill="#000000" stroke="none" d="M 554 475.5 C 554 471.357864 557.357864 468 561.5 468 C 565.642136 468 569 471.357864 569 475.5 C 569 479.642136 565.642136 483 561.5 483 C 557.357864 483 554 479.642136 554 475.5 Z"/></g><g transform="translate(-206,-38) scale(1,1)"><path fill="#C0C0C0" stroke="none" d="M 546 139 L 590.1484375 139 Q 600.1484375 139 600.1484375 149 L 600.1484375 168 Q 600.1484375 178 590.1484375 178 L 546 178 Q 536 178 536 168 L 536 149 Q 536 139 546 139 Z" opacity="0.2"/></g><g transform="translate(-206,-38) scale(1,1)"><path fill="#ffffff" stroke="none" d="M 539 132 L 583.1484375 132 Q 593.1484375 132 593.1484375 142 L 593.1484375 161 Q 593.1484375 171 583.1484375 171 L 539 171 Q 529 171 529 161 L 529 142 Q 529 132 539 132 Z"/></g><g transform="translate(-206,-38) scale(1,1)"><path fill="none" stroke="#000000" d="M 539 132 L 583.1484375 132 Q 593.1484375 132 593.1484375 142 L 593.1484375 161 Q 593.1484375 171 583.1484375 171 L 539 171 Q 529 171 529 161 L 529 142 Q 529 132 539 132 Z" stroke-miterlimit="10"/></g><g transform="translate(-206,-38) scale(1,1)"><g><path fill="none" stroke="none"/><text fill="#000000" stroke="none" font-family="Arial" font-size="13px" font-style="normal" font-weight="bold" text-decoration="none" x="535.53759765625" y="151.5">Averiado</text></g></g><g transform="translate(-206,-38) scale(1,1)"><path fill="none" stroke="#000000" d="M 480 475 L 548 475" stroke-miterlimit="10"/></g><g transform="translate(-206,-38) scale(1,1)"><path fill="none" stroke="#000000" d="M 537.8373251423759 479.209517756016 L 548 475 L 537.8373251423758 470.790482243984" stroke-miterlimit="10"/></g><g transform="translate(-206,-38) scale(1,1)"><g><path fill="none" stroke="none"/><text fill="#000000" stroke="none" font-family="Arial" font-size="13px" font-style="normal" font-weight="normal" text-decoration="none" x="493.5" y="466.5">Apagar</text></g></g><g transform="translate(-206,-38) scale(1,1)"><path fill="none" stroke="#000000" d="M 561 172 L 561 462" stroke-miterlimit="10"/></g><g transform="translate(-206,-38) scale(1,1)"><path fill="none" stroke="#000000" d="M 556.790482243984 451.83732514237585 L 561 462 L 565.209517756016 451.83732514237585" stroke-miterlimit="10"/></g><g transform="translate(-206,-38) scale(1,1)"><g><path fill="none" stroke="none"/><text fill="#000000" stroke="none" font-family="Arial" font-size="13px" font-style="normal" font-weight="normal" text-decoration="none" x="566.5" y="324.5">Apagar</text></g></g><g transform="translate(-206,-38) scale(1,1)"><path fill="#C0C0C0" stroke="none" d="M 329 495 L 435.01904296875 495 Q 445.01904296875 495 445.01904296875 505 L 445.01904296875 524 Q 445.01904296875 534 435.01904296875 534 L 329 534 Q 319 534 319 524 L 319 505 Q 319 495 329 495 Z" opacity="0.2"/></g><g transform="translate(-206,-38) scale(1,1)"><path fill="#ffffff" stroke="none" d="M 322 488 L 428.01904296875 488 Q 438.01904296875 488 438.01904296875 498 L 438.01904296875 517 Q 438.01904296875 527 428.01904296875 527 L 322 527 Q 312 527 312 517 L 312 498 Q 312 488 322 488 Z"/></g><g transform="translate(-206,-38) scale(1,1)"><path fill="none" stroke="#000000" d="M 322 488 L 428.01904296875 488 Q 438.01904296875 488 438.01904296875 498 L 438.01904296875 517 Q 438.01904296875 527 428.01904296875 527 L 322 527 Q 312 527 312 517 L 312 498 Q 312 488 322 488 Z" stroke-miterlimit="10"/></g><g transform="translate(-206,-38) scale(1,1)"><g><path fill="none" stroke="none"/><text fill="#000000" stroke="none" font-family="Arial" font-size="13px" font-style="normal" font-weight="bold" text-decoration="none" x="328.3955078125" y="507.5">Preparar bebida</text></g></g><g transform="translate(-206,-38) scale(1,1)"><path fill="#C0C0C0" stroke="none" d="M 329 55 L 435.74267578125 55 Q 445.74267578125 55 445.74267578125 65 L 445.74267578125 84 Q 445.74267578125 94 435.74267578125 94 L 329 94 Q 319 94 319 84 L 319 65 Q 319 55 329 55 Z" opacity="0.2"/></g><g transform="translate(-206,-38) scale(1,1)"><path fill="#ffffff" stroke="none" d="M 322 48 L 428.74267578125 48 Q 438.74267578125 48 438.74267578125 58 L 438.74267578125 77 Q 438.74267578125 87 428.74267578125 87 L 322 87 Q 312 87 312 77 L 312 58 Q 312 48 322 48 Z"/></g><g transform="translate(-206,-38) scale(1,1)"><path fill="none" stroke="#000000" d="M 322 48 L 428.74267578125 48 Q 438.74267578125 48 438.74267578125 58 L 438.74267578125 77 Q 438.74267578125 87 428.74267578125 87 L 322 87 Q 312 87 312 77 L 312 58 Q 312 48 322 48 Z" stroke-miterlimit="10"/></g><g transform="translate(-206,-38) scale(1,1)"><g><path fill="none" stroke="none"/><text fill="#000000" stroke="none" font-family="Arial" font-size="13px" font-style="normal" font-weight="bold" text-decoration="none" x="321.1845703125" y="67.5">Correr Diagnóstico</text></g></g><g transform="translate(-206,-38) scale(1,1)"><path fill="none" stroke="#000000" d="M 236 67 L 311 67" stroke-miterlimit="10"/></g><g transform="translate(-206,-38) scale(1,1)"><path fill="none" stroke="#000000" d="M 300.83732514237585 71.20951775601598 L 311 67 L 300.83732514237585 62.790482243984016" stroke-miterlimit="10"/></g><g transform="translate(-206,-38) scale(1,1)"><path fill="#C0C0C0" stroke="none" d="M 371 158.5 L 382.5 149 L 393 158.5 L 382.5 167 L 371 158.5" opacity="0.2"/></g><g transform="translate(-206,-38) scale(1,1)"><path fill="#ffffff" stroke="none" d="M 364 151 L 375 142 L 386 151 L 375 160 L 364 151"/></g><g transform="translate(-206,-38) scale(1,1)"><path fill="none" stroke="#000000" d="M 364 151 L 375 142 L 386 151 L 375 160 L 364 151 L 364 151" stroke-miterlimit="10"/></g><g transform="translate(-206,-38) scale(1,1)"><path fill="none" stroke="#000000" d="M 375 161 L 375 254" stroke-miterlimit="10"/></g><g transform="translate(-206,-38) scale(1,1)"><path fill="none" stroke="#000000" d="M 370.790482243984 243.83732514237585 L 375 254 L 379.209517756016 243.83732514237585" stroke-miterlimit="10"/></g><g transform="translate(-206,-38) scale(1,1)"><g><path fill="none" stroke="none"/><text fill="#000000" stroke="none" font-family="Arial" font-size="13px" font-style="normal" font-weight="normal" text-decoration="none" x="383.5" y="211.5">Funciona</text></g></g><g transform="translate(-206,-38) scale(1,1)"><path fill="none" stroke="#000000" d="M 387 151 L 528 151" stroke-miterlimit="10"/></g><g transform="translate(-206,-38) scale(1,1)"><path fill="none" stroke="#000000" d="M 517.8373251423759 155.209517756016 L 528 151 L 517.8373251423758 146.790482243984" stroke-miterlimit="10"/></g><g transform="translate(-206,-38) scale(1,1)"><g><path fill="none" stroke="none"/><text fill="#000000" stroke="none" font-family="Arial" font-size="13px" font-style="normal" font-weight="normal" text-decoration="none" x="422.5" y="142.5">No funciona</text></g></g><g transform="translate(-206,-38) scale(1,1)"><path fill="none" stroke="#000000" d="M 375 88 L 375 141" stroke-miterlimit="10"/></g><g transform="translate(-206,-38) scale(1,1)"><path fill="none" stroke="#000000" d="M 370.790482243984 130.83732514237585 L 375 141 L 379.209517756016 130.83732514237585" stroke-miterlimit="10"/></g><g transform="translate(-206,-38) scale(1,1)"><path fill="#C0C0C0" stroke="none" d="M 373 320.5 C 373 315.2532944 377.2532944 311 382.5 311 C 387.7467056 311 392 315.2532944 392 320.5 C 392 325.7467056 387.7467056 330 382.5 330 C 377.2532944 330 373 325.7467056 373 320.5 Z" opacity="0.2"/></g><g transform="translate(-206,-38) scale(1,1)"><path fill="#000000" stroke="none" d="M 366 313.5 C 366 308.2532944 370.2532944 304 375.5 304 C 380.7467056 304 385 308.2532944 385 313.5 C 385 318.7467056 380.7467056 323 375.5 323 C 370.2532944 323 366 318.7467056 366 313.5 Z"/></g><g transform="translate(-206,-38) scale(1,1)"><path fill="#C0C0C0" stroke="none" d="M 333 366 L 431.07177734375 366 Q 441.07177734375 366 441.07177734375 376 L 441.07177734375 395 Q 441.07177734375 405 431.07177734375 405 L 333 405 Q 323 405 323 395 L 323 376 Q 323 366 333 366 Z" opacity="0.2"/></g><g transform="translate(-206,-38) scale(1,1)"><path fill="#ffffff" stroke="none" d="M 326 359 L 424.07177734375 359 Q 434.07177734375 359 434.07177734375 369 L 434.07177734375 388 Q 434.07177734375 398 424.07177734375 398 L 326 398 Q 316 398 316 388 L 316 369 Q 316 359 326 359 Z"/></g><g transform="translate(-206,-38) scale(1,1)"><path fill="none" stroke="#000000" d="M 326 359 L 424.07177734375 359 Q 434.07177734375 359 434.07177734375 369 L 434.07177734375 388 Q 434.07177734375 398 424.07177734375 398 L 326 398 Q 316 398 316 388 L 316 369 Q 316 359 326 359 Z" stroke-miterlimit="10"/></g><g transform="translate(-206,-38) scale(1,1)"><g><path fill="none" stroke="none"/><text fill="#000000" stroke="none" font-family="Arial" font-size="13px" font-style="normal" font-weight="bold" text-decoration="none" x="324.4609375" y="378.5">Comprobar Stock</text></g></g><g transform="translate(-206,-38) scale(1,1)"><path fill="none" stroke="#000000" d="M 560 132 L 560 74 M 560 74 A 8 8 0 0 0 552 66 L 439 66" stroke-miterlimit="10"/></g><g transform="translate(-206,-38) scale(1,1)"><path fill="none" stroke="#000000" d="M 449.16267485762415 61.790482243984016 L 439 66 L 449.16267485762415 70.20951775601598" stroke-miterlimit="10"/></g><g transform="translate(-206,-38) scale(1,1)"><g><path fill="none" stroke="none"/><text fill="#000000" stroke="none" font-family="Arial" font-size="13px" font-style="normal" font-weight="normal" text-decoration="none" x="471.5" y="84.5">Es arreglada</text></g></g><g transform="translate(-206,-38) scale(1,1)"><path fill="#C0C0C0" stroke="none" d="M 370 657.5 C 370 650.59644 375.59644 645 382.5 645 C 389.40356 645 395 650.59644 395 657.5 C 395 664.40356 389.40356 670 382.5 670 C 375.59644 670 370 664.40356 370 657.5 Z" opacity="0.2"/></g><g transform="translate(-206,-38) scale(1,1)"><path fill="none" stroke="#000000" d="M 363 650.5 C 363 643.59644 368.59644 638 375.5 638 C 382.40356 638 388 643.59644 388 650.5 C 388 657.40356 382.40356 663 375.5 663 C 368.59644 663 363 657.40356 363 650.5 Z" stroke-miterlimit="10"/></g><g transform="translate(-206,-38) scale(1,1)"><path fill="#000000" stroke="none" d="M 368 650.5 C 368 646.357864 371.357864 643 375.5 643 C 379.642136 643 383 646.357864 383 650.5 C 383 654.642136 379.642136 658 375.5 658 C 371.357864 658 368 654.642136 368 650.5 Z"/></g><g transform="translate(-206,-38) scale(1,1)"><path fill="none" stroke="#000000" d="M 375 324 L 375 358" stroke-miterlimit="10"/></g><g transform="translate(-206,-38) scale(1,1)"><path fill="none" stroke="#000000" d="M 370.790482243984 347.83732514237585 L 375 358 L 379.209517756016 347.83732514237585" stroke-miterlimit="10"/></g><g transform="translate(-206,-38) scale(1,1)"><path fill="#C0C0C0" stroke="none" d="M 371 450.5 L 382.5 441 L 393 450.5 L 382.5 459 L 371 450.5" opacity="0.2"/></g><g transform="translate(-206,-38) scale(1,1)"><path fill="#ffffff" stroke="none" d="M 364 443 L 375 434 L 386 443 L 375 452 L 364 443"/></g><g transform="translate(-206,-38) scale(1,1)"><path fill="none" stroke="#000000" d="M 364 443 L 375 434 L 386 443 L 375 452 L 364 443 L 364 443" stroke-miterlimit="10"/></g><g transform="translate(-206,-38) scale(1,1)"><path fill="none" stroke="#000000" d="M 375 399 L 375 433" stroke-miterlimit="10"/></g><g transform="translate(-206,-38) scale(1,1)"><path fill="none" stroke="#000000" d="M 370.790482243984 422.83732514237585 L 375 433 L 379.209517756016 422.83732514237585" stroke-miterlimit="10"/></g><g transform="translate(-206,-38) scale(1,1)"><path fill="none" stroke="#000000" d="M 375 453 L 375 487" stroke-miterlimit="10"/></g><g transform="translate(-206,-38) scale(1,1)"><path fill="none" stroke="#000000" d="M 370.790482243984 476.83732514237585 L 375 487 L 379.209517756016 476.83732514237585" stroke-miterlimit="10"/></g><g transform="translate(-206,-38) scale(1,1)"><g><path fill="none" stroke="none"/><text fill="#000000" stroke="none" font-family="Arial" font-size="13px" font-style="normal" font-weight="normal" text-decoration="none" x="383.5" y="475.5">hay stock</text></g></g><g transform="translate(-206,-38) scale(1,1)"><path fill="none" stroke="#000000" d="M 363 443 Q 288 440 288 544 Q 288 648 362 650" stroke-miterlimit="10"/></g><g transform="translate(-206,-38) scale(1,1)"><path fill="none" stroke="#000000" d="M 351.72730560446007 653.9334145288594 L 362 650 L 351.95476404528245 645.5174522184309" stroke-miterlimit="10"/></g><g transform="translate(-206,-38) scale(1,1)"><g><path fill="none" stroke="none"/><text fill="#000000" stroke="none" font-family="Arial" font-size="13px" font-style="normal" font-weight="normal" text-decoration="none" x="278.5" y="436.5">no hay stock</text></g></g><g transform="translate(-206,-38) scale(1,1)"><path fill="#C0C0C0" stroke="none" d="M 338 570 L 427.41357421875 570 Q 437.41357421875 570 437.41357421875 580 L 437.41357421875 599 Q 437.41357421875 609 427.41357421875 609 L 338 609 Q 328 609 328 599 L 328 580 Q 328 570 338 570 Z" opacity="0.2"/></g><g transform="translate(-206,-38) scale(1,1)"><path fill="#ffffff" stroke="none" d="M 331 563 L 420.41357421875 563 Q 430.41357421875 563 430.41357421875 573 L 430.41357421875 592 Q 430.41357421875 602 420.41357421875 602 L 331 602 Q 321 602 321 592 L 321 573 Q 321 563 331 563 Z"/></g><g transform="translate(-206,-38) scale(1,1)"><path fill="none" stroke="#000000" d="M 331 563 L 420.41357421875 563 Q 430.41357421875 563 430.41357421875 573 L 430.41357421875 592 Q 430.41357421875 602 420.41357421875 602 L 331 602 Q 321 602 321 592 L 321 573 Q 321 563 331 563 Z" stroke-miterlimit="10"/></g><g transform="translate(-206,-38) scale(1,1)"><g><path fill="none" stroke="none"/><text fill="#000000" stroke="none" font-family="Arial" font-size="13px" font-style="normal" font-weight="bold" text-decoration="none" x="328.73095703125" y="582.5">Entregar Bebida</text></g></g><g transform="translate(-206,-38) scale(1,1)"><path fill="none" stroke="#000000" d="M 375 528 L 375 562" stroke-miterlimit="10"/></g><g transform="translate(-206,-38) scale(1,1)"><path fill="none" stroke="#000000" d="M 370.790482243984 551.8373251423759 L 375 562 L 379.209517756016 551.8373251423759" stroke-miterlimit="10"/></g><g transform="translate(-206,-38) scale(1,1)"><path fill="none" stroke="#000000" d="M 375 603 L 375 637" stroke-miterlimit="10"/></g><g transform="translate(-206,-38) scale(1,1)"><path fill="none" stroke="#000000" d="M 370.790482243984 626.8373251423759 L 375 637 L 379.209517756016 626.8373251423759" stroke-miterlimit="10"/></g><g transform="translate(-206,-38) scale(1,1)"><path fill="#ffffff" stroke="none" d="M 519.22216796875 640 L 582.1484375 640 L 592.1484375 650 L 592.1484375 689 L 519.22216796875 689 L 519.22216796875 640"/></g><g transform="translate(-206,-38) scale(1,1)"><path fill="none" stroke="#000000" d="M 519.22216796875 640 L 582.1484375 640 L 592.1484375 650 L 592.1484375 689 L 519.22216796875 689 L 519.22216796875 640 L 519.22216796875 640" stroke-miterlimit="10"/></g><g transform="translate(-206,-38) scale(1,1)"><path fill="none" stroke="#000000" d="M 582.1484375 640 L 582.1484375 650 L 592.1484375 650 L 582.1484375 640" stroke-miterlimit="10"/></g><g transform="translate(-206,-38) scale(1,1)"><g><path fill="none" stroke="none"/><text fill="#000000" stroke="none" font-family="Arial" font-size="13px" font-style="normal" font-weight="normal" text-decoration="none" x="524.22216796875" y="658">Alejnadro</text><text fill="#000000" stroke="none" font-family="Arial" font-size="13px" font-style="normal" font-weight="normal" text-decoration="none" x="524.22216796875" y="671">Pérez</text><text fill="#000000" stroke="none" font-family="Arial" font-size="13px" font-style="normal" font-weight="normal" text-decoration="none" x="524.22216796875" y="684">1ºDAW</text></g></g></g></svg>