<svg version="1.1" xmlns="http://www.w3.org/2000/svg" xmlns:xlink="http://www.w3.org/1999/xlink" width="494.18359375" height="701"><defs/><g><text fill="#eeeeee" stroke="none" font-family="Arial" font-size="24px" font-style="normal" font-weight="normal" text-decoration="none" x="0" y="0">UNREGISTERED</text><text fill="#eeeeee" stroke="none" font-family="Arial" font-size="24px" font-style="normal" font-weight="normal" text-decoration="none" x="0" y="30">UNREGISTERED</text><text fill="#eeeeee" stroke="none" font-family="Arial" font-size="24px" font-style="normal" font-weight="normal" text-decoration="none" x="0" y="60">UNREGISTERED</text><text fill="#eeeeee" stroke="none" font-family="Arial" font-size="24px" font-style="normal" font-weight="normal" text-decoration="none" x="0" y="90">UNREGISTERED</text><text fill="#eeeeee" stroke="none" font-family="Arial" font-size="24px" font-style="normal" font-weight="normal" text-decoration="none" x="0" y="120">UNREGISTERED</text><text fill="#eeeeee" stroke="none" font-family="Arial" font-size="24px" font-style="normal" font-weight="normal" text-decoration="none" x="0" y="150">UNREGISTERED</text><text fill="#eeeeee" stroke="none" font-family="Arial" font-size="24px" font-style="normal" font-weight="normal" text-decoration="none" x="0" y="180">UNREGISTERED</text><text fill="#eeeeee" stroke="none" font-family="Arial" font-size="24px" font-style="normal" font-weight="normal" text-decoration="none" x="0" y="210">UNREGISTERED</text><text fill="#eeeeee" stroke="none" font-family="Arial" font-size="24px" font-style="normal" font-weight="normal" text-decoration="none" x="0" y="240">UNREGISTERED</text><text fill="#eeeeee" stroke="none" font-family="Arial" font-size="24px" font-style="normal" font-weight="normal" text-decoration="none" x="0" y="270">UNREGISTERED</text><text fill="#eeeeee" stroke="none" font-family="Arial" font-size="24px" font-style="normal" font-weight="normal" text-decoration="none" x="0" y="300">UNREGISTERED</text><text fill="#eeeeee" stroke="none" font-family="Arial" font-size="24px" font-style="normal" font-weight="normal" text-decoration="none" x="0" y="330">UNREGISTERED</text><text fill="#eeeeee" stroke="none" font-family="Arial" font-size="24px" font-style="normal" font-weight="normal" text-decoration="none" x="0" y="360">UNREGISTERED</text><text fill="#eeeeee" stroke="none" font-family="Arial" font-size="24px" font-style="normal" font-weight="normal" text-decoration="none" x="0" y="390">UNREGISTERED</text><text fill="#eeeeee" stroke="none" font-family="Arial" font-size="24px" font-style="normal" font-weight="normal" text-decoration="none" x="0" y="420">UNREGISTERED</text><text fill="#eeeeee" stroke="none" font-family="Arial" font-size="24px" font-style="normal" font-weight="normal" text-decoration="none" x="0" y="450">UNREGISTERED</text><text fill="#eeeeee" stroke="none" font-family="Arial" font-size="24px" font-style="normal" font-weight="normal" text-decoration="none" x="0" y="480">UNREGISTERED</text><text fill="#eeeeee" stroke="none" font-family="Arial" font-size="24px" font-style="normal" font-weight="normal" text-decoration="none" x="0" y="510">UNREGISTERED</text><text fill="#eeeeee" stroke="none" font-family="Arial" font-size="24px" font-style="normal" font-weight="normal" text-decoration="none" x="0" y="540">UNREGISTERED</text><text fill="#eeeeee" stroke="none" font-family="Arial" font-size="24px" font-style="normal" font-weight="normal" text-decoration="none" x="0" y="570">UNREGISTERED</text><text fill="#eeeeee" stroke="none" font-family="Arial" font-size="24px" font-style="normal" font-weight="normal" text-decoration="none" x="0" y="600">UNREGISTERED</text><text fill="#eeeeee" stroke="none" font-family="Arial" font-size="24px" font-style="normal" font-weight="normal" text-decoration="none" x="0" y="630">UNREGISTERED</text><text fill="#eeeeee" stroke="none" font-family="Arial" font-size="24px" font-style="normal" font-weight="normal" text-decoration="none" x="0" y="660">UNREGISTERED</text><text fill="#eeeeee" stroke="none" font-family="Arial" font-size="24px" font-style="normal" font-weight="normal" text-decoration="none" x="0" y="690">UNREGISTERED</text><text fill="#eeeeee" stroke="none" font-family="Arial" font-size="24px" font-style="normal" font-weight="normal" text-decoration="none" x="200" y="0">UNREGISTERED</text><text fill="#eeeeee" stroke="none" font-family="Arial" font-size="24px" font-style="normal" font-weight="normal" text-decoration="none" x="200" y="30">UNREGISTERED</text><text fill="#eeeeee" stroke="none" font-family="Arial" font-size="24px" font-style="normal" font-weight="normal" text-decoration="none" x="200" y="60">UNREGISTERED</text><text fill="#eeeeee" stroke="none" font-family="Arial" font-size="24px" font-style="normal" font-weight="normal" text-decoration="none" x="200" y="90">UNREGISTERED</text><text fill="#eeeeee" stroke="none" font-family="Arial" font-size="24px" font-style="normal" font-weight="normal" text-decoration="none" x="200" y="120">UNREGISTERED</text><text fill="#eeeeee" stroke="none" font-family="Arial" font-size="24px" font-style="normal" font-weight="normal" text-decoration="none" x="200" y="150">UNREGISTERED</text><text fill="#eeeeee" stroke="none" font-family="Arial" font-size="24px" font-style="normal" font-weight="normal" text-decoration="none" x="200" y="180">UNREGISTERED</text><text fill="#eeeeee" stroke="none" font-family="Arial" font-size="24px" font-style="normal" font-weight="normal" text-decoration="none" x="200" y="210">UNREGISTERED</text><text fill="#eeeeee" stroke="none" font-family="Arial" font-size="24px" font-style="normal" font-weight="normal" text-decoration="none" x="200" y="240">UNREGISTERED</text><text fill="#eeeeee" stroke="none" font-family="Arial" font-size="24px" font-style="normal" font-weight="normal" text-decoration="none" x="200" y="270">UNREGISTERED</text><text fill="#eeeeee" stroke="none" font-family="Arial" font-size="24px" font-style="normal" font-weight="normal" text-decoration="none" x="200" y="300">UNREGISTERED</text><text fill="#eeeeee" stroke="none" font-family="Arial" font-size="24px" font-style="normal" font-weight="normal" text-decoration="none" x="200" y="330">UNREGISTERED</text><text fill="#eeeeee" stroke="none" font-family="Arial" font-size="24px" font-style="normal" font-weight="normal" text-decoration="none" x="200" y="360">UNREGISTERED</text><text fill="#eeeeee" stroke="none" font-family="Arial" font-size="24px" font-style="normal" font-weight="normal" text-decoration="none" x="200" y="390">UNREGISTERED</text><text fill="#eeeeee" stroke="none" font-family="Arial" font-size="24px" font-style="normal" font-weight="normal" text-decoration="none" x="200" y="420">UNREGISTERED</text><text fill="#eeeeee" stroke="none" font-family="Arial" font-size="24px" font-style="normal" font-weight="normal" text-decoration="none" x="200" y="450">UNREGISTERED</text><text fill="#eeeeee" stroke="none" font-family="Arial" font-size="24px" font-style="normal" font-weight="normal" text-decoration="none" x="200" y="480">UNREGISTERED</text><text fill="#eeeeee" stroke="none" font-family="Arial" font-size="24px" font-style="normal" font-weight="normal" text-decoration="none" x="200" y="510">UNREGISTERED</text><text fill="#eeeeee" stroke="none" font-family="Arial" font-size="24px" font-style="normal" font-weight="normal" text-decoration="none" x="200" y="540">UNREGISTERED</text><text fill="#eeeeee" stroke="none" font-family="Arial" font-size="24px" font-style="normal" font-weight="normal" text-decoration="none" x="200" y="570">UNREGISTERED</text><text fill="#eeeeee" stroke="none" font-family="Arial" font-size="24px" font-style="normal" font-weight="normal" text-decoration="none" x="200" y="600">UNREGISTERED</text><text fill="#eeeeee" stroke="none" font-family="Arial" font-size="24px" font-style="normal" font-weight="normal" text-decoration="none" x="200" y="630">UNREGISTERED</text><text fill="#eeeeee" stroke="none" font-family="Arial" font-size="24px" font-style="normal" font-weight="normal" text-decoration="none" x="200" y="660">UNREGISTERED</text><text fill="#eeeeee" stroke="none" font-family="Arial" font-size="24px" font-style="normal" font-weight="normal" text-decoration="none" x="200" y="690">UNREGISTERED</text><text fill="#eeeeee" stroke="none" font-family="Arial" font-size="24px" font-style="normal" font-weight="normal" text-decoration="none" x="400" y="0">UNREGISTERED</text><text fill="#eeeeee" stroke="none" font-family="Arial" font-size="24px" font-style="normal" font-weight="normal" text-decoration="none" x="400" y="30">UNREGISTERED</text><text fill="#eeeeee" stroke="none" font-family="Arial" font-size="24px" font-style="normal" font-weight="normal" text-decoration="none" x="400" y="60">UNREGISTERED</text><text fill="#eeeeee" stroke="none" font-family="Arial" font-size="24px" font-style="normal" font-weight="normal" text-decoration="none" x="400" y="90">UNREGISTERED</text><text fill="#eeeeee" stroke="none" font-family="Arial" font-size="24px" font-style="normal" font-weight="normal" text-decoration="none" x="400" y="120">UNREGISTERED</text><text fill="#eeeeee" stroke="none" font-family="Arial" font-size="24px" font-style="normal" font-weight="normal" text-decoration="none" x="400" y="150">UNREGISTERED</text><text fill="#eeeeee" stroke="none" font-family="Arial" font-size="24px" font-style="normal" font-weight="normal" text-decoration="none" x="400" y="180">UNREGISTERED</text><text fill="#eeeeee" stroke="none" font-family="Arial" font-size="24px" font-style="normal" font-weight="normal" text-decoration="none" x="400" y="210">UNREGISTERED</text><text fill="#eeeeee" stroke="none" font-family="Arial" font-size="24px" font-style="normal" font-weight="normal" text-decoration="none" x="400" y="240">UNREGISTERED</text><text fill="#eeeeee" stroke="none" font-family="Arial" font-size="24px" font-style="normal" font-weight="normal" text-decoration="none" x="400" y="270">UNREGISTERED</text><text fill="#eeeeee" stroke="none" font-family="Arial" font-size="24px" font-style="normal" font-weight="normal" text-decoration="none" x="400" y="300">UNREGISTERED</text><text fill="#eeeeee" stroke="none" font-family="Arial" font-size="24px" font-style="normal" font-weight="normal" text-decoration="none" x="400" y="330">UNREGISTERED</text><text fill="#eeeeee" stroke="none" font-family="Arial" font-size="24px" font-style="normal" font-weight="normal" text-decoration="none" x="400" y="360">UNREGISTERED</text><text fill="#eeeeee" stroke="none" font-family="Arial" font-size="24px" font-style="normal" font-weight="normal" text-decoration="none" x="400" y="390">UNREGISTERED</text><text fill="#eeeeee" stroke="none" font-family="Arial" font-size="24px" font-style="normal" font-weight="normal" text-decoration="none" x="400" y="420">UNREGISTERED</text><text fill="#eeeeee" stroke="none" font-family="Arial" font-size="24px" font-style="normal" font-weight="normal" text-decoration="none" x="400" y="450">UNREGISTERED</text><text fill="#eeeeee" stroke="none" font-family="Arial" font-size="24px" font-style="normal" font-weight="normal" text-decoration="none" x="400" y="480">UNREGISTERED</text><text fill="#eeeeee" stroke="none" font-family="Arial" font-size="24px" font-style="normal" font-weight="normal" text-decoration="none" x="400" y="510">UNREGISTERED</text><text fill="#eeeeee" stroke="none" font-family="Arial" font-size="24px" font-style="normal" font-weight="normal" text-decoration="none" x="400" y="540">UNREGISTERED</text><text fill="#eeeeee" stroke="none" font-family="Arial" font-size="24px" font-style="normal" font-weight="normal" text-decoration="none" x="400" y="570">UNREGISTERED</text><text fill="#eeeeee" stroke="none" font-family="Arial" font-size="24px" font-style="normal" font-weight="normal" text-decoration="none" x="400" y="600">UNREGISTERED</text><text fill="#eeeeee" stroke="none" font-family="Arial" font-size="24px" font-style="normal" font-weight="normal" text-decoration="none" x="400" y="630">UNREGISTERED</text><text fill="#eeeeee" stroke="none" font-family="Arial" font-size="24px" font-style="normal" font-weight="normal" text-decoration="none" x="400" y="660">UNREGISTERED</text><text fill="#eeeeee" stroke="none" font-family="Arial" font-size="24px" font-style="normal" font-weight="normal" text-decoration="none" x="400" y="690">UNREGISTERED</text><g transform="translate(-102,-110) scale(1,1)"><path fill="#C0C0C0" stroke="none" d="M 359 136.5 C 359 131.2532944 363.2532944 127 368.5 127 C 373.7467056 127 378 131.2532944 378 136.5 C 378 141.7467056 373.7467056 146 368.5 146 C 363.2532944 146 359 141.7467056 359 136.5 Z" opacity="0.2"/></g><g transform="translate(-102,-110) scale(1,1)"><path fill="#000000" stroke="none" d="M 352 129.5 C 352 124.2532944 356.2532944 120 361.5 120 C 366.7467056 120 371 124.2532944 371 129.5 C 371 134.7467056 366.7467056 139 361.5 139 C 356.2532944 139 352 134.7467056 352 129.5 Z"/></g><g transform="translate(-102,-110) scale(1,1)"><path fill="#C0C0C0" stroke="none" d="M 322 304.5 L 369 295 L 415 304.5 L 369 313 L 322 304.5" opacity="0.2"/></g><g transform="translate(-102,-110) scale(1,1)"><path fill="#ffffff" stroke="none" d="M 315 297 L 361.5 288 L 408 297 L 361.5 306 L 315 297"/></g><g transform="translate(-102,-110) scale(1,1)"><path fill="none" stroke="#000000" d="M 315 297 L 361.5 288 L 408 297 L 361.5 306 L 315 297 L 315 297" stroke-miterlimit="10"/></g><g transform="translate(-102,-110) scale(1,1)"><path fill="none" stroke="#000000" d="M 361 140 L 361 199" stroke-miterlimit="10"/></g><g transform="translate(-102,-110) scale(1,1)"><path fill="none" stroke="#000000" d="M 356.790482243984 188.83732514237585 L 361 199 L 365.209517756016 188.83732514237585" stroke-miterlimit="10"/></g><g transform="translate(-102,-110) scale(1,1)"><g><path fill="none" stroke="none"/><text fill="#000000" stroke="none" font-family="Arial" font-size="13px" font-style="normal" font-weight="normal" text-decoration="none" x="373.5" y="178.5">cumples 16</text></g></g><g transform="translate(-102,-110) scale(1,1)"><path fill="#C0C0C0" stroke="none" d="M 240 399 L 296.18359375 399 Q 306.18359375 399 306.18359375 409 L 306.18359375 428 Q 306.18359375 438 296.18359375 438 L 240 438 Q 230 438 230 428 L 230 409 Q 230 399 240 399 Z" opacity="0.2"/></g><g transform="translate(-102,-110) scale(1,1)"><path fill="#ffffff" stroke="none" d="M 233 392 L 289.18359375 392 Q 299.18359375 392 299.18359375 402 L 299.18359375 421 Q 299.18359375 431 289.18359375 431 L 233 431 Q 223 431 223 421 L 223 402 Q 223 392 233 392 Z"/></g><g transform="translate(-102,-110) scale(1,1)"><path fill="none" stroke="#000000" d="M 233 392 L 289.18359375 392 Q 299.18359375 392 299.18359375 402 L 299.18359375 421 Q 299.18359375 431 289.18359375 431 L 233 431 Q 223 431 223 421 L 223 402 Q 223 392 233 392 Z" stroke-miterlimit="10"/></g><g transform="translate(-102,-110) scale(1,1)"><g><path fill="none" stroke="none"/><text fill="#000000" stroke="none" font-family="Arial" font-size="13px" font-style="normal" font-weight="bold" text-decoration="none" x="240.496826171875" y="411.5">Soltero</text></g></g><g transform="translate(-102,-110) scale(1,1)"><path fill="#C0C0C0" stroke="none" d="M 446 399 L 502.18359375 399 Q 512.18359375 399 512.18359375 409 L 512.18359375 428 Q 512.18359375 438 502.18359375 438 L 446 438 Q 436 438 436 428 L 436 409 Q 436 399 446 399 Z" opacity="0.2"/></g><g transform="translate(-102,-110) scale(1,1)"><path fill="#ffffff" stroke="none" d="M 439 392 L 495.18359375 392 Q 505.18359375 392 505.18359375 402 L 505.18359375 421 Q 505.18359375 431 495.18359375 431 L 439 431 Q 429 431 429 421 L 429 402 Q 429 392 439 392 Z"/></g><g transform="translate(-102,-110) scale(1,1)"><path fill="none" stroke="#000000" d="M 439 392 L 495.18359375 392 Q 505.18359375 392 505.18359375 402 L 505.18359375 421 Q 505.18359375 431 495.18359375 431 L 439 431 Q 429 431 429 421 L 429 402 Q 429 392 439 392 Z" stroke-miterlimit="10"/></g><g transform="translate(-102,-110) scale(1,1)"><g><path fill="none" stroke="none"/><text fill="#000000" stroke="none" font-family="Arial" font-size="13px" font-style="normal" font-weight="bold" text-decoration="none" x="444.687744140625" y="411.5">Casado</text></g></g><g transform="translate(-102,-110) scale(1,1)"><path fill="#C0C0C0" stroke="none" d="M 369 587 L 425.18359375 587 Q 435.18359375 587 435.18359375 597 L 435.18359375 616 Q 435.18359375 626 425.18359375 626 L 369 626 Q 359 626 359 616 L 359 597 Q 359 587 369 587 Z" opacity="0.2"/></g><g transform="translate(-102,-110) scale(1,1)"><path fill="#ffffff" stroke="none" d="M 362 580 L 418.18359375 580 Q 428.18359375 580 428.18359375 590 L 428.18359375 609 Q 428.18359375 619 418.18359375 619 L 362 619 Q 352 619 352 609 L 352 590 Q 352 580 362 580 Z"/></g><g transform="translate(-102,-110) scale(1,1)"><path fill="none" stroke="#000000" d="M 362 580 L 418.18359375 580 Q 428.18359375 580 428.18359375 590 L 428.18359375 609 Q 428.18359375 619 418.18359375 619 L 362 619 Q 352 619 352 609 L 352 590 Q 352 580 362 580 Z" stroke-miterlimit="10"/></g><g transform="translate(-102,-110) scale(1,1)"><g><path fill="none" stroke="none"/><text fill="#000000" stroke="none" font-family="Arial" font-size="13px" font-style="normal" font-weight="bold" text-decoration="none" x="359.385009765625" y="599.5">Divorciado</text></g></g><g transform="translate(-102,-110) scale(1,1)"><path fill="#C0C0C0" stroke="none" d="M 527 587 L 583.18359375 587 Q 593.18359375 587 593.18359375 597 L 593.18359375 616 Q 593.18359375 626 583.18359375 626 L 527 626 Q 517 626 517 616 L 517 597 Q 517 587 527 587 Z" opacity="0.2"/></g><g transform="translate(-102,-110) scale(1,1)"><path fill="#ffffff" stroke="none" d="M 520 580 L 576.18359375 580 Q 586.18359375 580 586.18359375 590 L 586.18359375 609 Q 586.18359375 619 576.18359375 619 L 520 619 Q 510 619 510 609 L 510 590 Q 510 580 520 580 Z"/></g><g transform="translate(-102,-110) scale(1,1)"><path fill="none" stroke="#000000" d="M 520 580 L 576.18359375 580 Q 586.18359375 580 586.18359375 590 L 586.18359375 609 Q 586.18359375 619 576.18359375 619 L 520 619 Q 510 619 510 609 L 510 590 Q 510 580 520 580 Z" stroke-miterlimit="10"/></g><g transform="translate(-102,-110) scale(1,1)"><g><path fill="none" stroke="none"/><text fill="#000000" stroke="none" font-family="Arial" font-size="13px" font-style="normal" font-weight="bold" text-decoration="none" x="531.584716796875" y="599.5">Viudo</text></g></g><g transform="translate(-102,-110) scale(1,1)"><path fill="none" stroke="#000000" d="M 352 307 L 279 391" stroke-miterlimit="10"/></g><g transform="translate(-102,-110) scale(1,1)"><path fill="none" stroke="#000000" d="M 282.48893025351265 380.56796445145415 L 279 391 L 288.84360931930155 386.09048316338976" stroke-miterlimit="10"/></g><g transform="translate(-102,-110) scale(1,1)"><g><path fill="none" stroke="none"/><text fill="#000000" stroke="none" font-family="Arial" font-size="13px" font-style="normal" font-weight="normal" text-decoration="none" x="229.5" y="363.5">no casarse</text></g></g><g transform="translate(-102,-110) scale(1,1)"><path fill="none" stroke="#000000" d="M 370 307 L 448 391" stroke-miterlimit="10"/></g><g transform="translate(-102,-110) scale(1,1)"><path fill="none" stroke="#000000" d="M 438.0000895061236 386.41722899170594 L 448 391 L 444.1695039351113 380.6884870219316" stroke-miterlimit="10"/></g><g transform="translate(-102,-110) scale(1,1)"><g><path fill="none" stroke="none"/><text fill="#000000" stroke="none" font-family="Arial" font-size="13px" font-style="normal" font-weight="normal" text-decoration="none" x="436.5" y="360.5">casarse</text></g></g><g transform="translate(-102,-110) scale(1,1)"><path fill="#C0C0C0" stroke="none" d="M 255 795.5 C 255 788.59644 260.59644 783 267.5 783 C 274.40356 783 280 788.59644 280 795.5 C 280 802.40356 274.40356 808 267.5 808 C 260.59644 808 255 802.40356 255 795.5 Z" opacity="0.2"/></g><g transform="translate(-102,-110) scale(1,1)"><path fill="none" stroke="#000000" d="M 248 788.5 C 248 781.59644 253.59644 776 260.5 776 C 267.40356 776 273 781.59644 273 788.5 C 273 795.40356 267.40356 801 260.5 801 C 253.59644 801 248 795.40356 248 788.5 Z" stroke-miterlimit="10"/></g><g transform="translate(-102,-110) scale(1,1)"><path fill="#000000" stroke="none" d="M 253 788.5 C 253 784.357864 256.357864 781 260.5 781 C 264.642136 781 268 784.357864 268 788.5 C 268 792.642136 264.642136 796 260.5 796 C 256.357864 796 253 792.642136 253 788.5 Z"/></g><g transform="translate(-102,-110) scale(1,1)"><path fill="#C0C0C0" stroke="none" d="M 440 515.5 L 475 506 L 509 515.5 L 475 524 L 440 515.5" opacity="0.2"/></g><g transform="translate(-102,-110) scale(1,1)"><path fill="#ffffff" stroke="none" d="M 433 508 L 467.5 499 L 502 508 L 467.5 517 L 433 508"/></g><g transform="translate(-102,-110) scale(1,1)"><path fill="none" stroke="#000000" d="M 433 508 L 467.5 499 L 502 508 L 467.5 517 L 433 508 L 433 508" stroke-miterlimit="10"/></g><g transform="translate(-102,-110) scale(1,1)"><path fill="none" stroke="#000000" d="M 467 432 L 467 498" stroke-miterlimit="10"/></g><g transform="translate(-102,-110) scale(1,1)"><path fill="none" stroke="#000000" d="M 462.790482243984 487.83732514237585 L 467 498 L 471.209517756016 487.83732514237585" stroke-miterlimit="10"/></g><g transform="translate(-102,-110) scale(1,1)"><g><path fill="none" stroke="none"/><text fill="#000000" stroke="none" font-family="Arial" font-size="13px" font-style="normal" font-weight="normal" text-decoration="none" x="483.5" y="482.5">ocurre algo</text></g></g><g transform="translate(-102,-110) scale(1,1)"><path fill="none" stroke="#000000" d="M 459 518 L 407 579" stroke-miterlimit="10"/></g><g transform="translate(-102,-110) scale(1,1)"><path fill="none" stroke="#000000" d="M 410.3893679613048 568.5351930346097 L 407 579 L 416.79638103841074 573.9969091003394" stroke-miterlimit="10"/></g><g transform="translate(-102,-110) scale(1,1)"><g><path fill="none" stroke="none"/><text fill="#000000" stroke="none" font-family="Arial" font-size="13px" font-style="normal" font-weight="normal" text-decoration="none" x="366.5" y="547.5">os peleáis </text></g></g><g transform="translate(-102,-110) scale(1,1)"><path fill="none" stroke="#000000" d="M 476 518 L 530 579" stroke-miterlimit="10"/></g><g transform="translate(-102,-110) scale(1,1)"><path fill="none" stroke="#000000" d="M 520.1118580185762 574.1808042003665 L 530 579 L 526.4157137813863 568.6003417218134" stroke-miterlimit="10"/></g><g transform="translate(-102,-110) scale(1,1)"><g><path fill="none" stroke="none"/><text fill="#000000" stroke="none" font-family="Arial" font-size="13px" font-style="normal" font-weight="normal" text-decoration="none" x="524.5" y="552.5">se muere</text></g></g><g transform="translate(-102,-110) scale(1,1)"><path fill="#C0C0C0" stroke="none" d="M 234 515.5 L 269 506 L 303 515.5 L 269 524 L 234 515.5" opacity="0.2"/></g><g transform="translate(-102,-110) scale(1,1)"><path fill="#ffffff" stroke="none" d="M 227 508 L 261.5 499 L 296 508 L 261.5 517 L 227 508"/></g><g transform="translate(-102,-110) scale(1,1)"><path fill="none" stroke="#000000" d="M 227 508 L 261.5 499 L 296 508 L 261.5 517 L 227 508 L 227 508" stroke-miterlimit="10"/></g><g transform="translate(-102,-110) scale(1,1)"><path fill="none" stroke="#000000" d="M 261 432 L 261 498" stroke-miterlimit="10"/></g><g transform="translate(-102,-110) scale(1,1)"><path fill="none" stroke="#000000" d="M 256.790482243984 487.83732514237585 L 261 498 L 265.209517756016 487.83732514237585" stroke-miterlimit="10"/></g><g transform="translate(-102,-110) scale(1,1)"><path fill="none" stroke="#000000" d="M 282 498 L 428 429" stroke-miterlimit="10"/></g><g transform="translate(-102,-110) scale(1,1)"><path fill="none" stroke="#000000" d="M 420.6104401297959 437.1482761934454 L 428 429 L 417.01309075442856 429.5364934571609" stroke-miterlimit="10"/></g><g transform="translate(-102,-110) scale(1,1)"><g><path fill="none" stroke="none"/><text fill="#000000" stroke="none" font-family="Arial" font-size="13px" font-style="normal" font-weight="normal" text-decoration="none" x="325.5" y="455.5">casarse</text></g></g><g transform="translate(-102,-110) scale(1,1)"><path fill="none" stroke="#000000" d="M 261 518 L 260 775" stroke-miterlimit="10"/></g><g transform="translate(-102,-110) scale(1,1)"><path fill="none" stroke="#000000" d="M 255.83005729283974 764.8210227518183 L 260 775 L 264.2490290723405 764.8537813968748" stroke-miterlimit="10"/></g><g transform="translate(-102,-110) scale(1,1)"><g><path fill="none" stroke="none"/><text fill="#000000" stroke="none" font-family="Arial" font-size="13px" font-style="normal" font-weight="normal" text-decoration="none" x="262.5" y="652.5">morirse</text></g></g><g transform="translate(-102,-110) scale(1,1)"><path fill="#C0C0C0" stroke="none" d="M 328 207 L 408.025390625 207 Q 418.025390625 207 418.025390625 217 L 418.025390625 236 Q 418.025390625 246 408.025390625 246 L 328 246 Q 318 246 318 236 L 318 217 Q 318 207 328 207 Z" opacity="0.2"/></g><g transform="translate(-102,-110) scale(1,1)"><path fill="#ffffff" stroke="none" d="M 321 200 L 401.025390625 200 Q 411.025390625 200 411.025390625 210 L 411.025390625 229 Q 411.025390625 239 401.025390625 239 L 321 239 Q 311 239 311 229 L 311 210 Q 311 200 321 200 Z"/></g><g transform="translate(-102,-110) scale(1,1)"><path fill="none" stroke="#000000" d="M 321 200 L 401.025390625 200 Q 411.025390625 200 411.025390625 210 L 411.025390625 229 Q 411.025390625 239 401.025390625 239 L 321 239 Q 311 239 311 229 L 311 210 Q 311 200 321 200 Z" stroke-miterlimit="10"/></g><g transform="translate(-102,-110) scale(1,1)"><g><path fill="none" stroke="none"/><text fill="#000000" stroke="none" font-family="Arial" font-size="13px" font-style="normal" font-weight="bold" text-decoration="none" x="317.65185546875" y="219.5">Mayor de edad</text></g></g><g transform="translate(-102,-110) scale(1,1)"><path fill="none" stroke="#000000" d="M 361 240 L 361 287" stroke-miterlimit="10"/></g><g transform="translate(-102,-110) scale(1,1)"><path fill="none" stroke="#000000" d="M 356.790482243984 276.83732514237585 L 361 287 L 365.209517756016 276.83732514237585" stroke-miterlimit="10"/></g><g transform="translate(-102,-110) scale(1,1)"><path fill="#C0C0C0" stroke="none" d="M 443 695 L 506 695 Q 509 695 509 698 L 509 697 Q 509 700 506 700 L 443 700 Q 440 700 440 697 L 440 698 Q 440 695 443 695 Z" opacity="0.2"/></g><g transform="translate(-102,-110) scale(1,1)"><path fill="#000000" stroke="none" d="M 436 688 L 499 688 Q 502 688 502 691 L 502 691 Q 502 694 499 694 L 436 694 Q 433 694 433 691 L 433 691 Q 433 688 436 688 Z"/></g><g transform="translate(-102,-110) scale(1,1)"><path fill="none" stroke="#000000" d="M 408 620 L 464 687" stroke-miterlimit="10"/></g><g transform="translate(-102,-110) scale(1,1)"><path fill="none" stroke="#000000" d="M 454.2526873946915 681.9019712658328 L 464 687 L 460.7124598470547 676.5027584698278" stroke-miterlimit="10"/></g><g transform="translate(-102,-110) scale(1,1)"><path fill="none" stroke="#000000" d="M 529 620 L 470 687" stroke-miterlimit="10"/></g><g transform="translate(-102,-110) scale(1,1)"><path fill="none" stroke="#000000" d="M 473.5571059921942 676.5910136439567 L 470 687 L 479.8755186061163 682.1549889308433" stroke-miterlimit="10"/></g><g transform="translate(-102,-110) scale(1,1)"><path fill="none" stroke="#000000" d="M 456 687 Q 312 648 265 518" stroke-miterlimit="10"/></g><g transform="translate(-102,-110) scale(1,1)"><path fill="none" stroke="#000000" d="M 272.4140467551406 526.1260021358962 L 265 518 L 264.49657152236546 528.9884739508226" stroke-miterlimit="10"/></g><g transform="translate(-102,-110) scale(1,1)"><path fill="#ffffff" stroke="none" d="M 512.25732421875 736 L 575.18359375 736 L 585.18359375 746 L 585.18359375 785 L 512.25732421875 785 L 512.25732421875 736"/></g><g transform="translate(-102,-110) scale(1,1)"><path fill="none" stroke="#000000" d="M 512.25732421875 736 L 575.18359375 736 L 585.18359375 746 L 585.18359375 785 L 512.25732421875 785 L 512.25732421875 736 L 512.25732421875 736" stroke-miterlimit="10"/></g><g transform="translate(-102,-110) scale(1,1)"><path fill="none" stroke="#000000" d="M 575.18359375 736 L 575.18359375 746 L 585.18359375 746 L 575.18359375 736" stroke-miterlimit="10"/></g><g transform="translate(-102,-110) scale(1,1)"><g><path fill="none" stroke="none"/><text fill="#000000" stroke="none" font-family="Arial" font-size="13px" font-style="normal" font-weight="normal" text-decoration="none" x="517.25732421875" y="754">Alejandro</text><text fill="#000000" stroke="none" font-family="Arial" font-size="13px" font-style="normal" font-weight="normal" text-decoration="none" x="517.25732421875" y="767">Pérez -</text><text fill="#000000" stroke="none" font-family="Arial" font-size="13px" font-style="normal" font-weight="normal" text-decoration="none" x="517.25732421875" y="780">1ºDAW</text></g></g><g transform="translate(-102,-110) scale(1,1)"><path fill="none" stroke="#000000" d="M 351 137 Q 112 328 256 775" stroke-miterlimit="10"/></g><g transform="translate(-102,-110) scale(1,1)"><path fill="none" stroke="#000000" d="M 248.8770835411288 766.6176339187589 L 256 775 L 256.8905653685406 764.0361095716733" stroke-miterlimit="10"/></g><g transform="translate(-102,-110) scale(1,1)"><g><path fill="none" stroke="none"/><text fill="#000000" stroke="none" font-family="Arial" font-size="13px" font-style="normal" font-weight="normal" text-decoration="none" x="159.5" y="651.5">morirse</text></g></g></g></svg>